<svg id="Layer_1" data-name="Layer 1" xmlns="http://www.w3.org/2000/svg" viewBox="0 0 376.31 376.31"><title>stencil-logo</title><path d="M315.13,67.85H196.87c-71,0-129,58.06-129,129V315.13c0,71,58.06,129,129,129H315.13c71,0,129-58.06,129-129V196.87C444.15,125.91,386.09,67.85,315.13,67.85Zm16.13,240.84c0,16.8-24.59,30.64-41.39,30.64H222.13c-16.93,0-41.39-13.71-41.39-30.64v-1.61H331.26v1.61Zm0-36.56H222.13c-16.8,0-41.39-13.84-41.39-30.64v-1.61H289.87c16.8,0,41.39,13.84,41.39,30.64v1.61Zm0-67.2H180.74v-1.61c0-16.8,24.46-30.64,41.39-30.64h67.74c16.93,0,41.39,13.71,41.39,30.64v1.61Z" transform="translate(-67.85 -67.85)" style="fill:#16161d"/></svg>